<svg version="1.1" xmlns="http://www.w3.org/2000/svg" xmlns:xlink="http://www.w3.org/1999/xlink" x="0px" y="0px" viewBox="0 0 73 76" enable-background="new 0 0 73 76" xml:space="preserve">
<g>
	<path fill="#E30613" d="M1.9172,75.9471h69.1664c0,0,1.9022,0,1.9022-1.8102V1.8631c0,0,0-1.8102-1.9022-1.8102H1.9172
		c0,0-1.9029,0-1.9029,1.8102v72.2738C0.0143,74.1369,0.0143,75.9471,1.9172,75.9471z"/>
	<g>
		<path fill="#FFFFFF" d="M44.9924,8.3338c-0.4418,0.1279-5.2705,1.5269-5.3585,1.5507c-0.1474,0.0403-0.5187,0.1141-0.7077,0.3347
			c-0.1873,0.2233-0.2723,0.5106-0.3203,0.8742c-0.2719,2.0681,0.0198,11.2001,0.4197,15.5404
			c0.007,0.0765,0.1034,1.6565,0.3223,2.1527c0.2468,0.4489,0.5311,0.8343,0.8514,1.2308c0.5774,0.7688,0.9867,1.7803,0.9867,2.757
			c0,2.6764-2.0963,4.78-4.6981,4.78c-2.6015,0-4.7015-2.1057-4.7015-4.7025c0-1.0559,0.3982-2.0462,0.9904-2.8345
			c0.3203-0.3965,0.6046-0.7819,0.8511-1.2308c0.2766-0.6271,0.2991-1.4899,0.3253-2.1527
			c0.1648-4.2264,0.4032-9.5242,0.5106-12.3483c0.0141-2.3326-0.323-4.8992,0.0591-7.1973c0.2478-2.3528,2.7969-3.7,4.8606-2.711
			c1.8777,0.7295,3.5375,1.8921,5.2914,2.8607l0.2481,0.1387c0.8245,0.4898,0.329,0.8531,0.1578,0.9286L44.9924,8.3338z"/>
		<path fill="#FFFFFF" d="M36.4925,68.2929c0,0-1.9919,2.5666-2.9772,3.8592c-0.0161,0.0252-0.1051,0.1145-0.2323,0.1145h-7.4571
			c-0.1793-0.0114-0.3018-0.1544-0.3018-0.3079v-0.6822c0-0.1051,0.0648-0.2172,0.1699-0.2753l7.8036-3.9598
			c0,0,0.0704-0.0367,0.112-0.0619c0.0326-0.0197,0.0725-0.0469,0.1047-0.073c0.2902-0.2355,0.5417-0.5738,0.5417-0.9667
			c0-0.0161-0.0091-0.1427-0.048-0.3633c0,0-2.1792-11.7131-3.0887-16.4596c-0.0604-0.3623,0.1752-0.5801,0.4724-0.5288
			c1.0622,0.3471,3.1323,0.7453,4.91,0.7453c1.682,0,3.8192-0.3982,4.8918-0.7453c0.2975-0.0514,0.5331,0.1665,0.4724,0.5288
			c-0.9095,4.7465-3.0887,16.4596-3.0887,16.4596c-0.0386,0.2206-0.0477,0.3471-0.0477,0.3633c0,0.3934,0.2538,0.7296,0.5425,0.9676
			c0.0272,0.0224,0.0739,0.0528,0.1029,0.0707c0.0291,0.0179,0.11,0.0619,0.11,0.0619l7.8063,3.9612
			c0.1051,0.0581,0.1699,0.1702,0.1699,0.2753v0.6822c0,0.1534-0.1225,0.2964-0.3015,0.3079h-7.4571
			c-0.1272,0-0.2165-0.0893-0.2327-0.1145C38.4844,70.8595,36.4925,68.2929,36.4925,68.2929"/>
		<path fill="#FFFFFF" d="M36.4907,40.4436c-4.1819-0.0011-7.5843-3.4041-7.5843-7.586c0-1.5979,0.5569-3.2194,1.5685-4.5659
			l0.0621-0.0796c0.172-0.2414,0.3606-0.4947,0.4615-0.6281c0.054-0.0715,0.1578-0.2168,0.1578-0.2168s-0.0897-0.2684-0.1041-0.3124
			c-0.0052-0.0159-0.0109-0.0316-0.0164-0.0474c-1.2769-3.6749-3.7601-6.6506-6.8241-9.1297
			c-7.4391,3.2923-13.8757,9.6668-13.8757,18.466c0,10.7992,9.608,18.0378,19.2544,20.1655
			c-0.44-2.3349-0.8681-4.5868-1.2996-6.8393l-0.0119-0.0678c-0.1824-1.0901,0.1615-2.1909,0.9195-2.9449
			c0.7489-0.745,1.8277-1.0811,2.8851-0.898c0.1717,0.0294,0.3304,0.0683,0.4818,0.1186c0.736,0.2446,2.5846,0.5846,3.93,0.5846
			c1.3505,0,3.1968-0.34,3.9322-0.5846c0.1508-0.0503,0.3095-0.0892,0.484-0.1192c1.0551-0.1824,2.1333,0.1536,2.8822,0.8986
			c0.758,0.754,1.1019,1.8548,0.9201,2.9449l-0.0124,0.0683c-0.4321,2.253-0.8596,4.5049-1.2996,6.8404
			c9.6487-2.1254,19.2624-9.3652,19.2624-20.1672c0-8.7992-6.4372-15.1737-13.8757-18.466
			c-3.0677,2.4819-5.553,5.4607-6.8287,9.1413c-0.006,0.0174-0.1179,0.3569-0.1179,0.3569s0.0871,0.1386,0.1688,0.2487
			c0.1211,0.1633,0.2481,0.3375,0.4349,0.5868l0.0627,0.0808c0.9579,1.2754,1.5103,2.8094,1.5611,4.331
			c0.0045,0.065,0.009,0.144,0.009,0.2344c0,4.183-3.403,7.586-7.586,7.586H36.4907z"/>
	</g>
</g>
</svg>
